<svg width="176" height="45" viewBox="0 0 176 45" fill="none" xmlns="http://www.w3.org/2000/svg">
<rect width="176" height="45" rx="22.5" fill="url(#paint0_linear_1989_119)"/>
<path d="M31.3239 31.2386C30.3239 31.2386 29.4233 31.0398 28.6222 30.642C27.821 30.2443 27.179 29.6989 26.696 29.0057C26.2131 28.3125 25.9489 27.5227 25.9034 26.6364H27.9489C28.0284 27.4261 28.3864 28.0795 29.0227 28.5966C29.6648 29.108 30.4318 29.3636 31.3239 29.3636C32.0398 29.3636 32.6761 29.196 33.233 28.8608C33.7955 28.5256 34.2358 28.0653 34.554 27.4801C34.8778 26.8892 35.0398 26.2216 35.0398 25.4773C35.0398 24.7159 34.8722 24.0369 34.5369 23.4403C34.2074 22.8381 33.7528 22.3636 33.1733 22.017C32.5937 21.6705 31.9318 21.4943 31.1875 21.4886C30.6534 21.483 30.1051 21.5653 29.5426 21.7358C28.9801 21.9006 28.517 22.1136 28.1534 22.375L26.1761 22.1364L27.233 13.5455H36.3011V15.4205H29.0057L28.392 20.5682H28.4943C28.8523 20.2841 29.3011 20.0483 29.8409 19.8608C30.3807 19.6733 30.9432 19.5795 31.5284 19.5795C32.5966 19.5795 33.5483 19.8352 34.3835 20.3466C35.2244 20.8523 35.8835 21.5455 36.3608 22.4261C36.8437 23.3068 37.0852 24.3125 37.0852 25.4432C37.0852 26.5568 36.8352 27.5511 36.3352 28.4261C35.8409 29.2955 35.1591 29.983 34.2898 30.4886C33.4205 30.9886 32.4318 31.2386 31.3239 31.2386ZM47.5277 13.5455H50.0504L55.9822 28.0341H56.1868L62.1186 13.5455H64.6413V31H62.6641V17.7386H62.4936L57.0391 31H55.13L49.6754 17.7386H49.505V31H47.5277V13.5455ZM74.0952 31.2727C72.8338 31.2727 71.7457 30.9943 70.831 30.4375C69.9219 29.875 69.2202 29.0909 68.7259 28.0852C68.2372 27.0739 67.9929 25.8977 67.9929 24.5568C67.9929 23.2159 68.2372 22.0341 68.7259 21.0114C69.2202 19.983 69.9077 19.1818 70.7884 18.608C71.6747 18.0284 72.7088 17.7386 73.8906 17.7386C74.5724 17.7386 75.2457 17.8523 75.9105 18.0795C76.5753 18.3068 77.1804 18.6761 77.7259 19.1875C78.2713 19.6932 78.706 20.3636 79.0298 21.1989C79.3537 22.0341 79.5156 23.0625 79.5156 24.2841V25.1364H69.4247V23.3977H77.4702C77.4702 22.6591 77.3224 22 77.027 21.4205C76.7372 20.8409 76.3224 20.3835 75.7827 20.0483C75.2486 19.7131 74.6179 19.5455 73.8906 19.5455C73.0895 19.5455 72.3963 19.7443 71.8111 20.142C71.2315 20.5341 70.7855 21.0455 70.473 21.6761C70.1605 22.3068 70.0043 22.983 70.0043 23.7045V24.8636C70.0043 25.8523 70.1747 26.6903 70.5156 27.3778C70.8622 28.0597 71.3423 28.5795 71.956 28.9375C72.5696 29.2898 73.2827 29.4659 74.0952 29.4659C74.6236 29.4659 75.1009 29.392 75.527 29.2443C75.9588 29.0909 76.331 28.8636 76.6435 28.5625C76.956 28.2557 77.1974 27.875 77.3679 27.4205L79.3111 27.9659C79.1065 28.625 78.7628 29.2045 78.2798 29.7045C77.7969 30.1989 77.2003 30.5852 76.4901 30.8636C75.7798 31.1364 74.9815 31.2727 74.0952 31.2727ZM82.5753 31V17.9091H84.5185V19.9545H84.6889C84.9616 19.2557 85.402 18.7131 86.0099 18.3267C86.6179 17.9347 87.348 17.7386 88.2003 17.7386C89.0639 17.7386 89.7827 17.9347 90.3565 18.3267C90.9361 18.7131 91.3878 19.2557 91.7116 19.9545H91.848C92.1832 19.2784 92.6861 18.7415 93.3565 18.3437C94.027 17.9403 94.831 17.7386 95.7685 17.7386C96.9389 17.7386 97.8963 18.1051 98.6406 18.8381C99.3849 19.5653 99.7571 20.6989 99.7571 22.2386V31H97.7457V22.2386C97.7457 21.2727 97.4815 20.5824 96.9531 20.1676C96.4247 19.7528 95.8026 19.5455 95.0866 19.5455C94.1662 19.5455 93.4531 19.8239 92.9474 20.3807C92.4418 20.9318 92.1889 21.6307 92.1889 22.4773V31H90.1435V22.0341C90.1435 21.2898 89.902 20.6903 89.419 20.2358C88.9361 19.7756 88.3139 19.5455 87.5526 19.5455C87.0298 19.5455 86.5412 19.6847 86.0866 19.9631C85.6378 20.2415 85.2741 20.6278 84.9957 21.1222C84.723 21.6108 84.5866 22.1761 84.5866 22.8182V31H82.5753ZM103.707 31V13.5455H105.719V19.9886H105.889C106.037 19.7614 106.241 19.4716 106.503 19.1193C106.77 18.7614 107.151 18.4432 107.645 18.1648C108.145 17.8807 108.821 17.7386 109.673 17.7386C110.776 17.7386 111.747 18.0142 112.588 18.5653C113.429 19.1165 114.085 19.8977 114.557 20.9091C115.028 21.9205 115.264 23.1136 115.264 24.4886C115.264 25.875 115.028 27.0767 114.557 28.0937C114.085 29.1051 113.432 29.8892 112.597 30.446C111.761 30.9972 110.798 31.2727 109.707 31.2727C108.866 31.2727 108.193 31.1335 107.688 30.8551C107.182 30.571 106.793 30.25 106.52 29.892C106.247 29.5284 106.037 29.2273 105.889 28.9886H105.651V31H103.707ZM105.685 24.4545C105.685 25.4432 105.83 26.3153 106.119 27.071C106.409 27.821 106.832 28.4091 107.389 28.8352C107.946 29.2557 108.628 29.4659 109.435 29.4659C110.276 29.4659 110.977 29.2443 111.54 28.8011C112.108 28.3523 112.534 27.75 112.818 26.9943C113.108 26.233 113.253 25.3864 113.253 24.4545C113.253 23.5341 113.111 22.7045 112.827 21.9659C112.548 21.2216 112.125 20.6335 111.557 20.2017C110.994 19.7642 110.287 19.5455 109.435 19.5455C108.616 19.5455 107.929 19.7528 107.372 20.1676C106.815 20.5767 106.395 21.1506 106.111 21.8892C105.827 22.6222 105.685 23.4773 105.685 24.4545ZM123.83 31.2727C122.568 31.2727 121.48 30.9943 120.565 30.4375C119.656 29.875 118.955 29.0909 118.46 28.0852C117.972 27.0739 117.727 25.8977 117.727 24.5568C117.727 23.2159 117.972 22.0341 118.46 21.0114C118.955 19.983 119.642 19.1818 120.523 18.608C121.409 18.0284 122.443 17.7386 123.625 17.7386C124.307 17.7386 124.98 17.8523 125.645 18.0795C126.31 18.3068 126.915 18.6761 127.46 19.1875C128.006 19.6932 128.44 20.3636 128.764 21.1989C129.088 22.0341 129.25 23.0625 129.25 24.2841V25.1364H119.159V23.3977H127.205C127.205 22.6591 127.057 22 126.761 21.4205C126.472 20.8409 126.057 20.3835 125.517 20.0483C124.983 19.7131 124.352 19.5455 123.625 19.5455C122.824 19.5455 122.131 19.7443 121.545 20.142C120.966 20.5341 120.52 21.0455 120.207 21.6761C119.895 22.3068 119.739 22.983 119.739 23.7045V24.8636C119.739 25.8523 119.909 26.6903 120.25 27.3778C120.597 28.0597 121.077 28.5795 121.69 28.9375C122.304 29.2898 123.017 29.4659 123.83 29.4659C124.358 29.4659 124.835 29.392 125.261 29.2443C125.693 29.0909 126.065 28.8636 126.378 28.5625C126.69 28.2557 126.932 27.875 127.102 27.4205L129.045 27.9659C128.841 28.625 128.497 29.2045 128.014 29.7045C127.531 30.1989 126.935 30.5852 126.224 30.8636C125.514 31.1364 124.716 31.2727 123.83 31.2727ZM132.31 31V17.9091H134.253V19.8864H134.389C134.628 19.2386 135.06 18.7131 135.685 18.3097C136.31 17.9062 137.014 17.7045 137.798 17.7045C137.946 17.7045 138.131 17.7074 138.352 17.7131C138.574 17.7187 138.741 17.7273 138.855 17.7386V19.7841C138.787 19.767 138.631 19.7415 138.386 19.7074C138.148 19.6676 137.895 19.6477 137.628 19.6477C136.991 19.6477 136.423 19.7812 135.923 20.0483C135.429 20.3097 135.037 20.6733 134.747 21.1392C134.463 21.5994 134.321 22.125 134.321 22.7159V31H132.31ZM150.512 20.8409L148.705 21.3523C148.592 21.0511 148.424 20.7585 148.202 20.4744C147.987 20.1847 147.691 19.946 147.316 19.7585C146.941 19.571 146.461 19.4773 145.876 19.4773C145.075 19.4773 144.407 19.6619 143.873 20.0312C143.344 20.3949 143.08 20.858 143.08 21.4205C143.08 21.9205 143.262 22.3153 143.626 22.6051C143.989 22.8949 144.558 23.1364 145.33 23.3295L147.273 23.8068C148.444 24.0909 149.316 24.5256 149.89 25.1108C150.464 25.6903 150.751 26.4375 150.751 27.3523C150.751 28.1023 150.535 28.7727 150.103 29.3636C149.677 29.9545 149.08 30.4205 148.313 30.7614C147.546 31.1023 146.654 31.2727 145.637 31.2727C144.302 31.2727 143.197 30.983 142.322 30.4034C141.447 29.8239 140.893 28.9773 140.66 27.8636L142.569 27.3864C142.751 28.0909 143.094 28.6193 143.6 28.9716C144.112 29.3239 144.779 29.5 145.603 29.5C146.54 29.5 147.285 29.3011 147.836 28.9034C148.393 28.5 148.671 28.017 148.671 27.4545C148.671 27 148.512 26.6193 148.194 26.3125C147.876 26 147.387 25.767 146.728 25.6136L144.546 25.1023C143.347 24.8182 142.467 24.3778 141.904 23.7812C141.347 23.179 141.069 22.4261 141.069 21.5227C141.069 20.7841 141.276 20.1307 141.691 19.5625C142.112 18.9943 142.683 18.5483 143.404 18.2244C144.131 17.9006 144.955 17.7386 145.876 17.7386C147.171 17.7386 148.188 18.0227 148.927 18.5909C149.671 19.1591 150.2 19.9091 150.512 20.8409Z" fill="white"/>
<defs>
<linearGradient id="paint0_linear_1989_119" x1="88" y1="0" x2="88" y2="45" gradientUnits="userSpaceOnUse">
<stop stop-color="#205F5F"/>
<stop offset="1" stop-color="#080810" stop-opacity="0"/>
</linearGradient>
</defs>
</svg>



