<svg width="378" height="71" viewBox="0 0 378 71" fill="none" xmlns="http://www.w3.org/2000/svg">
<g clip-path="url(#clip0_1989_142)">
<path d="M2.81818 47V23.7273H16.8636V26.2273H5.63636V34.0909H16.1364V36.5909H5.63636V44.5H17.0455V47H2.81818ZM23.5795 29.5455L27.7614 36.6818L31.9432 29.5455H35.0341L29.3977 38.2727L35.0341 47H31.9432L27.7614 40.2273L23.5795 47H20.4886L26.0341 38.2727L20.4886 29.5455H23.5795ZM38.8608 53.5455V29.5455H41.4517V32.3182H41.7699C41.9669 32.0152 42.2396 31.6288 42.5881 31.1591C42.9441 30.6818 43.4517 30.2576 44.1108 29.8864C44.7775 29.5076 45.679 29.3182 46.8153 29.3182C48.285 29.3182 49.5805 29.6856 50.7017 30.4205C51.8229 31.1553 52.6979 32.197 53.3267 33.5455C53.9555 34.8939 54.2699 36.4848 54.2699 38.3182C54.2699 40.1667 53.9555 41.7689 53.3267 43.125C52.6979 44.4735 51.8267 45.5189 50.7131 46.2614C49.5994 46.9962 48.3153 47.3636 46.8608 47.3636C45.7396 47.3636 44.8419 47.178 44.1676 46.8068C43.4934 46.428 42.9744 46 42.6108 45.5227C42.2472 45.0379 41.9669 44.6364 41.7699 44.3182H41.5426V53.5455H38.8608ZM41.4972 38.2727C41.4972 39.5909 41.6903 40.7538 42.0767 41.7614C42.4631 42.7614 43.0275 43.5455 43.7699 44.1136C44.5123 44.6742 45.4214 44.9545 46.4972 44.9545C47.6184 44.9545 48.554 44.6591 49.304 44.0682C50.0616 43.4697 50.6297 42.6667 51.0085 41.6591C51.3949 40.6439 51.5881 39.5152 51.5881 38.2727C51.5881 37.0455 51.3987 35.9394 51.0199 34.9545C50.6487 33.9621 50.0843 33.178 49.3267 32.6023C48.5767 32.0189 47.6335 31.7273 46.4972 31.7273C45.4063 31.7273 44.4896 32.0038 43.7472 32.5568C43.0047 33.1023 42.4441 33.8674 42.0653 34.8523C41.6866 35.8295 41.4972 36.9697 41.4972 38.2727ZM61.0426 23.7273V47H58.3608V23.7273H61.0426ZM73.0455 47.3636C71.4697 47.3636 70.0871 46.9886 68.8977 46.2386C67.7159 45.4886 66.7917 44.4394 66.125 43.0909C65.4659 41.7424 65.1364 40.1667 65.1364 38.3636C65.1364 36.5455 65.4659 34.9583 66.125 33.6023C66.7917 32.2462 67.7159 31.1932 68.8977 30.4432C70.0871 29.6932 71.4697 29.3182 73.0455 29.3182C74.6212 29.3182 76 29.6932 77.1818 30.4432C78.3712 31.1932 79.2955 32.2462 79.9545 33.6023C80.6212 34.9583 80.9545 36.5455 80.9545 38.3636C80.9545 40.1667 80.6212 41.7424 79.9545 43.0909C79.2955 44.4394 78.3712 45.4886 77.1818 46.2386C76 46.9886 74.6212 47.3636 73.0455 47.3636ZM73.0455 44.9545C74.2424 44.9545 75.2273 44.6477 76 44.0341C76.7727 43.4205 77.3447 42.6136 77.7159 41.6136C78.0871 40.6136 78.2727 39.5303 78.2727 38.3636C78.2727 37.197 78.0871 36.1098 77.7159 35.1023C77.3447 34.0947 76.7727 33.2803 76 32.6591C75.2273 32.0379 74.2424 31.7273 73.0455 31.7273C71.8485 31.7273 70.8636 32.0379 70.0909 32.6591C69.3182 33.2803 68.7462 34.0947 68.375 35.1023C68.0038 36.1098 67.8182 37.197 67.8182 38.3636C67.8182 39.5303 68.0038 40.6136 68.375 41.6136C68.7462 42.6136 69.3182 43.4205 70.0909 44.0341C70.8636 44.6477 71.8485 44.9545 73.0455 44.9545ZM85.0483 47V29.5455H87.6392V32.1818H87.821C88.1392 31.3182 88.715 30.6174 89.5483 30.0795C90.3816 29.5417 91.321 29.2727 92.3665 29.2727C92.5634 29.2727 92.8097 29.2765 93.1051 29.2841C93.4006 29.2917 93.6241 29.303 93.7756 29.3182V32.0455C93.6847 32.0227 93.4763 31.9886 93.1506 31.9432C92.8324 31.8902 92.4953 31.8636 92.1392 31.8636C91.2907 31.8636 90.5331 32.0417 89.8665 32.3977C89.2074 32.7462 88.6847 33.2311 88.2983 33.8523C87.9195 34.4659 87.7301 35.1667 87.7301 35.9545V47H85.0483ZM103.741 47.3636C102.06 47.3636 100.609 46.9924 99.3892 46.25C98.1771 45.5 97.2415 44.4545 96.5824 43.1136C95.9309 41.7652 95.6051 40.197 95.6051 38.4091C95.6051 36.6212 95.9309 35.0455 96.5824 33.6818C97.2415 32.3106 98.1581 31.2424 99.3324 30.4773C100.514 29.7045 101.893 29.3182 103.469 29.3182C104.378 29.3182 105.276 29.4697 106.162 29.7727C107.048 30.0758 107.855 30.5682 108.582 31.25C109.31 31.9242 109.889 32.8182 110.321 33.9318C110.753 35.0455 110.969 36.4167 110.969 38.0455V39.1818H97.5142V36.8636H108.241C108.241 35.8788 108.045 35 107.651 34.2273C107.264 33.4545 106.711 32.8447 105.991 32.3977C105.279 31.9508 104.438 31.7273 103.469 31.7273C102.401 31.7273 101.476 31.9924 100.696 32.5227C99.9233 33.0455 99.3286 33.7273 98.9119 34.5682C98.4953 35.4091 98.2869 36.3106 98.2869 37.2727V38.8182C98.2869 40.1364 98.5142 41.2538 98.9688 42.1705C99.4309 43.0795 100.071 43.7727 100.889 44.25C101.707 44.7197 102.658 44.9545 103.741 44.9545C104.446 44.9545 105.082 44.8561 105.651 44.6591C106.226 44.4545 106.723 44.1515 107.139 43.75C107.556 43.3409 107.878 42.8333 108.105 42.2273L110.696 42.9545C110.423 43.8333 109.965 44.6061 109.321 45.2727C108.677 45.9318 107.882 46.447 106.935 46.8182C105.988 47.1818 104.923 47.3636 103.741 47.3636ZM129.185 47.4091C128.079 47.4091 127.075 47.2008 126.173 46.7841C125.272 46.3598 124.556 45.75 124.026 44.9545C123.495 44.1515 123.23 43.1818 123.23 42.0455C123.23 41.0455 123.427 40.2348 123.821 39.6136C124.215 38.9848 124.741 38.4924 125.401 38.1364C126.06 37.7803 126.787 37.5152 127.582 37.3409C128.385 37.1591 129.192 37.0152 130.003 36.9091C131.063 36.7727 131.923 36.6705 132.582 36.6023C133.249 36.5265 133.734 36.4015 134.037 36.2273C134.348 36.053 134.503 35.75 134.503 35.3182V35.2273C134.503 34.1061 134.196 33.2348 133.582 32.6136C132.976 31.9924 132.056 31.6818 130.821 31.6818C129.541 31.6818 128.537 31.9621 127.81 32.5227C127.082 33.0833 126.571 33.6818 126.276 34.3182L123.73 33.4091C124.185 32.3485 124.791 31.5227 125.548 30.9318C126.313 30.3333 127.147 29.9167 128.048 29.6818C128.957 29.4394 129.851 29.3182 130.73 29.3182C131.291 29.3182 131.935 29.3864 132.662 29.5227C133.397 29.6515 134.105 29.9205 134.787 30.3295C135.476 30.7386 136.048 31.3561 136.503 32.1818C136.957 33.0076 137.185 34.1136 137.185 35.5V47H134.503V44.6364H134.366C134.185 45.0152 133.882 45.4205 133.457 45.8523C133.033 46.2841 132.469 46.6515 131.764 46.9545C131.06 47.2576 130.2 47.4091 129.185 47.4091ZM129.594 45C130.654 45 131.548 44.7917 132.276 44.375C133.01 43.9583 133.563 43.4205 133.935 42.7614C134.313 42.1023 134.503 41.4091 134.503 40.6818V38.2273C134.389 38.3636 134.139 38.4886 133.753 38.6023C133.374 38.7083 132.935 38.803 132.435 38.8864C131.942 38.9621 131.461 39.0303 130.991 39.0909C130.529 39.1439 130.154 39.1894 129.866 39.2273C129.17 39.3182 128.518 39.4659 127.912 39.6705C127.313 39.8674 126.829 40.1667 126.457 40.5682C126.094 40.9621 125.912 41.5 125.912 42.1818C125.912 43.1136 126.257 43.8182 126.946 44.2955C127.643 44.7652 128.526 45 129.594 45ZM144.761 23.7273V47H142.08V23.7273H144.761ZM152.355 23.7273V47H149.673V23.7273H152.355ZM173.358 47.3636C171.722 47.3636 170.313 46.9773 169.131 46.2045C167.949 45.4318 167.04 44.3674 166.403 43.0114C165.767 41.6553 165.449 40.1061 165.449 38.3636C165.449 36.5909 165.775 35.0265 166.426 33.6705C167.085 32.3068 168.002 31.2424 169.176 30.4773C170.358 29.7045 171.737 29.3182 173.312 29.3182C174.54 29.3182 175.646 29.5455 176.631 30C177.616 30.4545 178.422 31.0909 179.051 31.9091C179.68 32.7273 180.07 33.6818 180.222 34.7727H177.54C177.335 33.9773 176.881 33.2727 176.176 32.6591C175.479 32.0379 174.54 31.7273 173.358 31.7273C172.313 31.7273 171.396 32 170.608 32.5455C169.828 33.0833 169.218 33.8447 168.778 34.8295C168.347 35.8068 168.131 36.9545 168.131 38.2727C168.131 39.6212 168.343 40.7955 168.767 41.7955C169.199 42.7955 169.805 43.572 170.585 44.125C171.373 44.678 172.297 44.9545 173.358 44.9545C174.055 44.9545 174.688 44.8333 175.256 44.5909C175.824 44.3485 176.305 44 176.699 43.5455C177.093 43.0909 177.373 42.5455 177.54 41.9091H180.222C180.07 42.9394 179.695 43.8674 179.097 44.6932C178.506 45.5114 177.722 46.1629 176.744 46.6477C175.775 47.125 174.646 47.3636 173.358 47.3636ZM189.278 47.4091C188.172 47.4091 187.169 47.2008 186.267 46.7841C185.366 46.3598 184.65 45.75 184.119 44.9545C183.589 44.1515 183.324 43.1818 183.324 42.0455C183.324 41.0455 183.521 40.2348 183.915 39.6136C184.309 38.9848 184.835 38.4924 185.494 38.1364C186.153 37.7803 186.881 37.5152 187.676 37.3409C188.479 37.1591 189.286 37.0152 190.097 36.9091C191.157 36.7727 192.017 36.6705 192.676 36.6023C193.343 36.5265 193.828 36.4015 194.131 36.2273C194.441 36.053 194.597 35.75 194.597 35.3182V35.2273C194.597 34.1061 194.29 33.2348 193.676 32.6136C193.07 31.9924 192.15 31.6818 190.915 31.6818C189.634 31.6818 188.631 31.9621 187.903 32.5227C187.176 33.0833 186.665 33.6818 186.369 34.3182L183.824 33.4091C184.278 32.3485 184.884 31.5227 185.642 30.9318C186.407 30.3333 187.241 29.9167 188.142 29.6818C189.051 29.4394 189.945 29.3182 190.824 29.3182C191.384 29.3182 192.028 29.3864 192.756 29.5227C193.491 29.6515 194.199 29.9205 194.881 30.3295C195.57 30.7386 196.142 31.3561 196.597 32.1818C197.051 33.0076 197.278 34.1136 197.278 35.5V47H194.597V44.6364H194.46C194.278 45.0152 193.975 45.4205 193.551 45.8523C193.127 46.2841 192.563 46.6515 191.858 46.9545C191.153 47.2576 190.294 47.4091 189.278 47.4091ZM189.688 45C190.748 45 191.642 44.7917 192.369 44.375C193.104 43.9583 193.657 43.4205 194.028 42.7614C194.407 42.1023 194.597 41.4091 194.597 40.6818V38.2273C194.483 38.3636 194.233 38.4886 193.847 38.6023C193.468 38.7083 193.028 38.803 192.528 38.8864C192.036 38.9621 191.555 39.0303 191.085 39.0909C190.623 39.1439 190.248 39.1894 189.96 39.2273C189.263 39.3182 188.612 39.4659 188.006 39.6705C187.407 39.8674 186.922 40.1667 186.551 40.5682C186.188 40.9621 186.006 41.5 186.006 42.1818C186.006 43.1136 186.35 43.8182 187.04 44.2955C187.737 44.7652 188.619 45 189.688 45ZM209.764 29.5455V31.8182H200.719V29.5455H209.764ZM203.355 25.3636H206.037V42C206.037 42.7576 206.147 43.3258 206.366 43.7045C206.594 44.0758 206.882 44.3258 207.23 44.4545C207.586 44.5758 207.961 44.6364 208.355 44.6364C208.651 44.6364 208.893 44.6212 209.082 44.5909C209.272 44.553 209.423 44.5227 209.537 44.5L210.082 46.9091C209.901 46.9773 209.647 47.0455 209.321 47.1136C208.995 47.1894 208.582 47.2273 208.082 47.2273C207.325 47.2273 206.582 47.0644 205.855 46.7386C205.135 46.4129 204.537 45.9167 204.06 45.25C203.59 44.5833 203.355 43.7424 203.355 42.7273V25.3636ZM220.929 47.3636C219.247 47.3636 217.796 46.9924 216.577 46.25C215.365 45.5 214.429 44.4545 213.77 43.1136C213.118 41.7652 212.793 40.197 212.793 38.4091C212.793 36.6212 213.118 35.0455 213.77 33.6818C214.429 32.3106 215.346 31.2424 216.52 30.4773C217.702 29.7045 219.08 29.3182 220.656 29.3182C221.565 29.3182 222.463 29.4697 223.349 29.7727C224.236 30.0758 225.043 30.5682 225.77 31.25C226.497 31.9242 227.077 32.8182 227.509 33.9318C227.94 35.0455 228.156 36.4167 228.156 38.0455V39.1818H214.702V36.8636H225.429C225.429 35.8788 225.232 35 224.838 34.2273C224.452 33.4545 223.899 32.8447 223.179 32.3977C222.467 31.9508 221.626 31.7273 220.656 31.7273C219.588 31.7273 218.664 31.9924 217.884 32.5227C217.111 33.0455 216.516 33.7273 216.099 34.5682C215.683 35.4091 215.474 36.3106 215.474 37.2727V38.8182C215.474 40.1364 215.702 41.2538 216.156 42.1705C216.618 43.0795 217.259 43.7727 218.077 44.25C218.895 44.7197 219.846 44.9545 220.929 44.9545C221.634 44.9545 222.27 44.8561 222.838 44.6591C223.414 44.4545 223.91 44.1515 224.327 43.75C224.743 43.3409 225.065 42.8333 225.293 42.2273L227.884 42.9545C227.611 43.8333 227.152 44.6061 226.509 45.2727C225.865 45.9318 225.069 46.447 224.122 46.8182C223.175 47.1818 222.111 47.3636 220.929 47.3636ZM239.281 53.9091C237.986 53.9091 236.872 53.7424 235.94 53.4091C235.009 53.0833 234.232 52.6515 233.611 52.1136C232.997 51.5833 232.509 51.0152 232.145 50.4091L234.281 48.9091C234.524 49.2273 234.83 49.5909 235.202 50C235.573 50.4167 236.08 50.7765 236.724 51.0795C237.376 51.3902 238.228 51.5455 239.281 51.5455C240.69 51.5455 241.853 51.2045 242.77 50.5227C243.687 49.8409 244.145 48.7727 244.145 47.3182V43.7727H243.918C243.721 44.0909 243.44 44.4848 243.077 44.9545C242.721 45.4167 242.205 45.8295 241.531 46.1932C240.865 46.5492 239.963 46.7273 238.827 46.7273C237.418 46.7273 236.152 46.3939 235.031 45.7273C233.918 45.0606 233.035 44.0909 232.384 42.8182C231.74 41.5455 231.418 40 231.418 38.1818C231.418 36.3939 231.732 34.8371 232.361 33.5114C232.99 32.178 233.865 31.1477 234.986 30.4205C236.107 29.6856 237.402 29.3182 238.872 29.3182C240.009 29.3182 240.91 29.5076 241.577 29.8864C242.251 30.2576 242.766 30.6818 243.122 31.1591C243.486 31.6288 243.766 32.0152 243.963 32.3182H244.236V29.5455H246.827V47.5C246.827 49 246.486 50.2197 245.804 51.1591C245.13 52.1061 244.221 52.7992 243.077 53.2386C241.94 53.6856 240.675 53.9091 239.281 53.9091ZM239.19 44.3182C240.266 44.3182 241.175 44.072 241.918 43.5795C242.66 43.0871 243.224 42.3788 243.611 41.4545C243.997 40.5303 244.19 39.4242 244.19 38.1364C244.19 36.8788 244.001 35.7689 243.622 34.8068C243.243 33.8447 242.683 33.0909 241.94 32.5455C241.198 32 240.281 31.7273 239.19 31.7273C238.054 31.7273 237.107 32.0152 236.349 32.5909C235.599 33.1667 235.035 33.9394 234.656 34.9091C234.285 35.8788 234.099 36.9545 234.099 38.1364C234.099 39.3485 234.289 40.4205 234.668 41.3523C235.054 42.2765 235.622 43.0038 236.372 43.5341C237.13 44.0568 238.069 44.3182 239.19 44.3182ZM258.827 47.3636C257.251 47.3636 255.868 46.9886 254.679 46.2386C253.497 45.4886 252.573 44.4394 251.906 43.0909C251.247 41.7424 250.918 40.1667 250.918 38.3636C250.918 36.5455 251.247 34.9583 251.906 33.6023C252.573 32.2462 253.497 31.1932 254.679 30.4432C255.868 29.6932 257.251 29.3182 258.827 29.3182C260.402 29.3182 261.781 29.6932 262.963 30.4432C264.152 31.1932 265.077 32.2462 265.736 33.6023C266.402 34.9583 266.736 36.5455 266.736 38.3636C266.736 40.1667 266.402 41.7424 265.736 43.0909C265.077 44.4394 264.152 45.4886 262.963 46.2386C261.781 46.9886 260.402 47.3636 258.827 47.3636ZM258.827 44.9545C260.024 44.9545 261.009 44.6477 261.781 44.0341C262.554 43.4205 263.126 42.6136 263.497 41.6136C263.868 40.6136 264.054 39.5303 264.054 38.3636C264.054 37.197 263.868 36.1098 263.497 35.1023C263.126 34.0947 262.554 33.2803 261.781 32.6591C261.009 32.0379 260.024 31.7273 258.827 31.7273C257.63 31.7273 256.645 32.0379 255.872 32.6591C255.099 33.2803 254.527 34.0947 254.156 35.1023C253.785 36.1098 253.599 37.197 253.599 38.3636C253.599 39.5303 253.785 40.6136 254.156 41.6136C254.527 42.6136 255.099 43.4205 255.872 44.0341C256.645 44.6477 257.63 44.9545 258.827 44.9545ZM270.83 47V29.5455H273.42V32.1818H273.602C273.92 31.3182 274.496 30.6174 275.33 30.0795C276.163 29.5417 277.102 29.2727 278.148 29.2727C278.345 29.2727 278.591 29.2765 278.886 29.2841C279.182 29.2917 279.405 29.303 279.557 29.3182V32.0455C279.466 32.0227 279.258 31.9886 278.932 31.9432C278.614 31.8902 278.277 31.8636 277.92 31.8636C277.072 31.8636 276.314 32.0417 275.648 32.3977C274.989 32.7462 274.466 33.2311 274.08 33.8523C273.701 34.4659 273.511 35.1667 273.511 35.9545V47H270.83ZM282.736 47V29.5455H285.418V47H282.736ZM284.099 26.6364C283.577 26.6364 283.126 26.4583 282.747 26.1023C282.376 25.7462 282.19 25.3182 282.19 24.8182C282.19 24.3182 282.376 23.8902 282.747 23.5341C283.126 23.178 283.577 23 284.099 23C284.622 23 285.069 23.178 285.44 23.5341C285.819 23.8902 286.009 24.3182 286.009 24.8182C286.009 25.3182 285.819 25.7462 285.44 26.1023C285.069 26.4583 284.622 26.6364 284.099 26.6364ZM297.648 47.3636C295.966 47.3636 294.515 46.9924 293.295 46.25C292.083 45.5 291.148 44.4545 290.489 43.1136C289.837 41.7652 289.511 40.197 289.511 38.4091C289.511 36.6212 289.837 35.0455 290.489 33.6818C291.148 32.3106 292.064 31.2424 293.239 30.4773C294.42 29.7045 295.799 29.3182 297.375 29.3182C298.284 29.3182 299.182 29.4697 300.068 29.7727C300.955 30.0758 301.761 30.5682 302.489 31.25C303.216 31.9242 303.795 32.8182 304.227 33.9318C304.659 35.0455 304.875 36.4167 304.875 38.0455V39.1818H291.42V36.8636H302.148C302.148 35.8788 301.951 35 301.557 34.2273C301.17 33.4545 300.617 32.8447 299.898 32.3977C299.186 31.9508 298.345 31.7273 297.375 31.7273C296.307 31.7273 295.383 31.9924 294.602 32.5227C293.83 33.0455 293.235 33.7273 292.818 34.5682C292.402 35.4091 292.193 36.3106 292.193 37.2727V38.8182C292.193 40.1364 292.42 41.2538 292.875 42.1705C293.337 43.0795 293.977 43.7727 294.795 44.25C295.614 44.7197 296.564 44.9545 297.648 44.9545C298.352 44.9545 298.989 44.8561 299.557 44.6591C300.133 44.4545 300.629 44.1515 301.045 43.75C301.462 43.3409 301.784 42.8333 302.011 42.2273L304.602 42.9545C304.33 43.8333 303.871 44.6061 303.227 45.2727C302.583 45.9318 301.788 46.447 300.841 46.8182C299.894 47.1818 298.83 47.3636 297.648 47.3636ZM321.318 33.4545L318.909 34.1364C318.758 33.7348 318.534 33.3447 318.239 32.9659C317.951 32.5795 317.557 32.2614 317.057 32.0114C316.557 31.7614 315.917 31.6364 315.136 31.6364C314.068 31.6364 313.178 31.8826 312.466 32.375C311.761 32.8598 311.409 33.4773 311.409 34.2273C311.409 34.8939 311.652 35.4205 312.136 35.8068C312.621 36.1932 313.379 36.5152 314.409 36.7727L317 37.4091C318.561 37.7879 319.723 38.3674 320.489 39.1477C321.254 39.9205 321.636 40.9167 321.636 42.1364C321.636 43.1364 321.348 44.0303 320.773 44.8182C320.205 45.6061 319.409 46.2273 318.386 46.6818C317.364 47.1364 316.174 47.3636 314.818 47.3636C313.038 47.3636 311.564 46.9773 310.398 46.2045C309.231 45.4318 308.492 44.303 308.182 42.8182L310.727 42.1818C310.97 43.1212 311.428 43.8258 312.102 44.2955C312.784 44.7652 313.674 45 314.773 45C316.023 45 317.015 44.7348 317.75 44.2045C318.492 43.6667 318.864 43.0227 318.864 42.2727C318.864 41.6667 318.652 41.1591 318.227 40.75C317.803 40.3333 317.152 40.0227 316.273 39.8182L313.364 39.1364C311.765 38.7576 310.591 38.1705 309.841 37.375C309.098 36.572 308.727 35.5682 308.727 34.3636C308.727 33.3788 309.004 32.5076 309.557 31.75C310.117 30.9924 310.879 30.3977 311.841 29.9659C312.811 29.5341 313.909 29.3182 315.136 29.3182C316.864 29.3182 318.22 29.697 319.205 30.4545C320.197 31.2121 320.902 32.2121 321.318 33.4545Z" fill="url(#paint0_linear_1989_142)"/>
<path d="M378.707 36.2071C379.098 35.8166 379.098 35.1834 378.707 34.7929L372.343 28.4289C371.953 28.0384 371.319 28.0384 370.929 28.4289C370.538 28.8195 370.538 29.4526 370.929 29.8431L376.586 35.5L370.929 41.1569C370.538 41.5474 370.538 42.1805 370.929 42.5711C371.319 42.9616 371.953 42.9616 372.343 42.5711L378.707 36.2071ZM334 36.5H378V34.5H334V36.5Z" fill="url(#paint1_linear_1989_142)"/>
</g>
<defs>
<linearGradient id="paint0_linear_1989_142" x1="-177.978" y1="-76.8683" x2="250.134" y2="-306.362" gradientUnits="userSpaceOnUse">
<stop stop-color="#727272" stop-opacity="0"/>
<stop offset="0.30059" stop-color="#FF8DB9"/>
<stop offset="1" stop-color="#F86E42"/>
</linearGradient>
<linearGradient id="paint1_linear_1989_142" x1="333.333" y1="35.5017" x2="385.401" y2="24.866" gradientUnits="userSpaceOnUse">
<stop stop-color="#727272" stop-opacity="0"/>
<stop offset="0.742053" stop-color="#FF8DB9"/>
<stop offset="1" stop-color="#F86E42"/>
</linearGradient>
<clipPath id="clip0_1989_142">
<rect width="378" height="71" rx="35.5" fill="white"/>
</clipPath>
</defs>
</svg>
