<svg width="29" height="29" viewBox="0 0 29 29" fill="none" xmlns="http://www.w3.org/2000/svg">
<path d="M27.4033 13.6942C27.9472 14.0938 27.9472 14.9062 27.4033 15.3058L13.5921 25.4544C12.9317 25.9397 12 25.4681 12 24.6486L12 4.3514C12 3.53186 12.9317 3.06028 13.5921 3.54556L27.4033 13.6942Z" fill="url(#paint0_linear_1989_126)"/>
<path d="M21.4033 13.6942C21.9472 14.0938 21.9472 14.9062 21.4033 15.3058L7.59213 25.4544C6.93172 25.9397 6 25.4681 6 24.6486L6 4.3514C6 3.53186 6.93172 3.06028 7.59214 3.54556L21.4033 13.6942Z" fill="url(#paint1_linear_1989_126)"/>
<defs>
<linearGradient id="paint0_linear_1989_126" x1="39.5" y1="14.5" x2="6.5" y2="14.5" gradientUnits="userSpaceOnUse">
<stop stop-color="#92C17C"/>
<stop offset="1" stop-color="#D9D9D9" stop-opacity="0"/>
</linearGradient>
<linearGradient id="paint1_linear_1989_126" x1="33.5" y1="14.5" x2="0.499998" y2="14.5" gradientUnits="userSpaceOnUse">
<stop stop-color="#92C17C"/>
<stop offset="1" stop-color="#D9D9D9" stop-opacity="0"/>
</linearGradient>
</defs>
</svg>
